<svg width="507" height="115" viewBox="0 0 507 115" fill="none" xmlns="http://www.w3.org/2000/svg">
<path d="M498.99 12.8245C500.552 12.8245 503.012 13.0773 506.367 13.5829L504.23 36.4739C502.115 35.9683 499.357 35.7155 495.956 35.7155C485.843 35.7155 480.787 40.427 480.787 49.85V84.3933H456.517V14.0655H474.582L478.374 25.3042H479.546C481.568 21.535 484.395 18.5242 488.027 16.2719C491.704 13.9736 495.358 12.8245 498.99 12.8245Z" fill="#333333"/>
<path d="M428.701 59.6407C428.701 64.1913 430.884 66.4667 435.251 66.4667C438.469 66.4667 442.376 65.6622 446.973 64.0534V81.7043C443.985 83.0373 440.951 84.0256 437.871 84.6691C434.837 85.3127 431.298 85.6344 427.253 85.6344C419.209 85.6344 413.348 83.6579 409.671 79.7048C406.04 75.7518 404.224 69.5923 404.224 61.2265V32.268H395.744V22.4084L406.5 14.7551L412.774 0H428.701V14.0656H445.938V32.268H428.701V59.6407Z" fill="#333333"/>
<path d="M382.944 46.4025C387.678 50.1258 390.045 55.6647 390.045 63.0192C390.045 70.3737 387.494 75.9816 382.392 79.8427C377.336 83.7038 369.958 85.6344 360.259 85.6344C355.065 85.6344 350.538 85.3586 346.676 84.807C342.815 84.2554 338.885 83.2212 334.886 81.7043V62.3297C338.839 64.0764 343.022 65.4554 347.435 66.4666C351.894 67.4779 355.847 67.9835 359.294 67.9835C364.534 67.9835 367.154 66.7884 367.154 64.3982C367.154 63.1571 366.442 62.0769 365.017 61.1576C363.592 60.1923 359.294 58.2847 352.123 55.4348C345.596 52.6769 341.069 49.6431 338.54 46.3336C336.012 42.9781 334.748 38.7262 334.748 33.5781C334.748 27.0969 337.276 22.0176 342.333 18.3404C347.389 14.6631 354.261 12.8245 362.948 12.8245C371.682 12.8245 380.53 14.824 389.494 18.823L382.875 34.4744C379.611 33.0035 376.21 31.7624 372.67 30.7512C369.177 29.7399 366.235 29.2343 363.845 29.2343C359.892 29.2343 357.915 30.1996 357.915 32.1301C357.915 33.3252 358.605 34.3595 359.984 35.2328C361.363 36.0602 365.362 37.7839 371.981 40.404C376.899 42.4265 380.553 44.426 382.944 46.4025Z" fill="#333333"/>
<path d="M298.996 85.6344C295.319 85.6344 292.078 85.0368 289.274 83.8417C286.516 82.6007 283.781 80.4862 281.069 77.4984H279.966C280.701 82.2329 281.069 85.2897 281.069 86.6686V114.938H256.799V14.0655H276.588L279.966 23.0289H281.069C285.528 16.2259 291.687 12.8245 299.547 12.8245C307.454 12.8245 313.613 16.0651 318.026 22.5462C322.484 28.9355 324.714 37.7839 324.714 49.0915C324.714 60.3991 322.392 69.3395 317.75 75.9126C313.107 82.3938 306.856 85.6344 298.996 85.6344ZM290.86 66.1219C294.169 66.1219 296.514 64.7889 297.893 62.1229C299.318 59.4109 300.03 54.9981 300.03 48.8847C300.03 42.7712 299.318 38.4275 297.893 35.8534C296.514 33.2333 294.123 31.9233 290.722 31.9233C287.367 31.9233 284.953 33.1414 283.482 35.5776C282.011 38.0138 281.207 41.8289 281.069 47.0231V48.9536C281.069 54.9752 281.874 59.3419 283.482 62.0539C285.091 64.7659 287.55 66.1219 290.86 66.1219Z" fill="#333333"/>
<path d="M220.081 85.6344C216.404 85.6344 213.164 85.0368 210.36 83.8417C207.602 82.6007 204.867 80.4862 202.155 77.4984H201.052C201.787 82.2329 202.155 85.2897 202.155 86.6686V114.938H177.885V14.0655H197.673L201.052 23.0289H202.155C206.613 16.2259 212.773 12.8245 220.633 12.8245C228.539 12.8245 234.699 16.0651 239.111 22.5462C243.57 28.9355 245.799 37.7839 245.799 49.0915C245.799 60.3991 243.478 69.3395 238.836 75.9126C234.193 82.3938 227.942 85.6344 220.081 85.6344ZM211.946 66.1219C215.255 66.1219 217.599 64.7889 218.978 62.1229C220.403 59.4109 221.116 54.9981 221.116 48.8847C221.116 42.7712 220.403 38.4275 218.978 35.8534C217.599 33.2333 215.209 31.9233 211.808 31.9233C208.452 31.9233 206.039 33.1414 204.568 35.5776C203.097 38.0138 202.293 41.8289 202.155 47.0231V48.9536C202.155 54.9752 202.959 59.3419 204.568 62.0539C206.177 64.7659 208.636 66.1219 211.946 66.1219Z" fill="#333333"/>
<path d="M144.851 40.5419C144.805 37.1404 143.863 34.4284 142.024 32.4059C140.185 30.3834 137.726 29.3722 134.647 29.3722C131.613 29.3722 129.154 30.3145 127.269 32.1991C125.43 34.0377 124.35 36.8186 124.028 40.5419H144.851ZM136.026 85.6344C124.304 85.6344 115.203 82.5317 108.722 76.3263C102.241 70.029 99 61.0427 99 49.3673C99 37.692 101.988 28.6827 107.963 22.3394C113.939 15.9961 122.374 12.8245 133.268 12.8245C144.161 12.8245 152.481 15.6054 158.227 21.1673C164.019 26.7291 166.915 34.6812 166.915 45.0236V55.7796H123.546C123.684 59.7326 125.109 62.8353 127.821 65.0877C130.533 67.294 134.095 68.3972 138.508 68.3972C142.966 68.3972 147.011 68.0065 150.643 67.2251C154.274 66.3977 158.158 64.9957 162.295 63.0192V80.4632C158.618 82.3938 154.734 83.7268 150.643 84.4623C146.598 85.2437 141.725 85.6344 136.026 85.6344Z" fill="#333333"/>
<path d="M0 14H86.5L2.09808e-05 100L0 14Z" fill="#0227F5"/>
<rect y="58" width="87" height="42" fill="#7F38A7"/>
<path fill-rule="evenodd" clip-rule="evenodd" d="M0 58L2.09808e-05 100L42.2442 58H0Z" fill="#7496A7"/>
</svg>
